<svg xmlns="http://www.w3.org/2000/svg">
  <symbol id="phone">
    <path
      d="M13.7455 13.0923C13.4909 13.5935 12.9818 13.8441 12.4727 14.0947C11.8364 14.4706 11.3273 14.5959 10.6909 14.5959C9.8 14.5959 8.90909 14.22 8.14545 13.9694C7.50909 13.7188 7 13.4682 6.36364 13.2176C4.58182 12.09 2.54545 10.0853 1.52727 8.45643C1.14545 7.82996 0.890909 7.32878 0.636364 6.70231C0.381818 5.82525 0 5.07349 0 4.07113C0 3.44466 0.127273 2.81819 0.509091 2.19172C0.763636 1.69054 1.01818 1.18936 1.52727 0.938771C1.90909 0.938771 2.54545 0.813477 2.92727 0.813477C3.05455 0.813477 3.05455 0.813477 3.18182 0.813477C3.43636 0.938771 3.56364 1.31465 3.69091 1.56524C3.94545 2.19172 4.32727 2.69289 4.58182 3.31936C4.83636 3.56995 5.09091 3.82054 5.09091 4.07113C5.09091 4.6976 3.30909 5.57466 3.30909 6.07584C3.30909 6.32643 3.56364 6.70231 3.69091 6.9529C4.70909 8.70702 5.98182 9.95997 7.76364 10.9623C8.01818 11.0876 8.4 11.3382 8.65455 11.3382C9.16364 11.3382 10.0545 9.58408 10.6909 9.58408C10.9455 9.58408 11.2 9.83467 11.4545 10.0853C11.9636 10.4611 12.6 10.7117 13.1091 11.0876C13.3636 11.2129 13.7455 11.3382 13.8727 11.5888C13.8727 11.7141 13.8727 11.7141 13.8727 11.8394C14 12.09 13.8727 12.7164 13.7455 13.0923Z"
      fill="white" />
  </symbol>
</svg>

<svg xmlns="http://www.w3.org/2000/svg">
  <symbol id="main1">
    <path
      d="M6.68662 24.4709C6.68662 24.9568 6.92954 25.4426 6.92954 25.9284C6.92954 27.8718 7.17246 31.0297 7.17246 31.0297H8.38704C8.38704 31.0297 8.38704 25.9284 7.65829 23.2563C6.92954 20.3413 6.68662 14.9971 8.38704 11.1104L7.17246 10.6246C7.17246 10.6246 5.71495 13.5396 5.71495 18.1551C5.71495 21.0701 5.95787 22.2847 6.20078 23.4992C5.22911 22.7705 2.55701 20.3413 2.79993 15.24C3.28577 9.41001 8.38704 4.06581 8.38704 4.06581C8.38704 4.06581 17.375 12.5679 9.35872 22.0417L10.3304 22.7705C10.3304 22.7705 13.9742 18.6409 13.9742 14.0254C13.9742 9.41001 12.0308 5.52332 8.38704 2.36539C8.38704 2.36539 2.07118 8.43834 1.58534 15.7259C1.34243 22.5276 6.4437 24.9568 6.4437 24.9568L6.68662 24.4709Z" />
    <path
      d="M19.3183 18.1551C10.3304 20.8272 10.8162 29.5722 11.0591 31.5156C7.9012 34.6735 6.4437 37.5885 6.4437 37.5885L7.41537 38.0743C16.6462 22.7705 30.9784 25.6855 30.9784 25.6855V24.4709C22.2334 23.4993 16.1604 26.9001 12.0308 30.301C11.7879 27.143 13.2454 19.6126 22.4763 18.8838C33.1647 18.6409 38.2659 24.9568 38.2659 24.9568C32.6788 33.9447 26.363 35.1593 22.4763 35.6452C18.3467 36.3739 13.2454 33.4589 13.2454 33.4589L12.7596 34.4306C12.7596 34.4306 17.1321 37.3456 22.7192 36.8597C34.8651 35.4022 39.4805 24.7138 39.4805 24.7138C38.2659 22.2847 29.278 15.7259 19.3183 18.1551Z" />
  </symbol>
</svg>

<svg xmlns="http://www.w3.org/2000/svg">
  <symbol id="main2">
    <path
      d="M6.84767 16.6328L9.01168 14.9016H9.22808C9.87729 14.9016 10.3101 14.4688 10.3101 13.8196C10.3101 13.3868 10.0937 13.1704 9.87729 12.954V8.40961H8.79528V12.954C8.36248 13.1704 8.14608 13.3868 8.14608 13.8196V14.036L5.98207 15.7672L6.84767 16.6328Z" />
    <path
      d="M39.7406 28.3185V21.3936C39.7406 19.2296 38.875 18.364 38.875 18.364C38.875 18.364 36.711 15.5508 35.4126 13.8196C34.1142 12.0884 32.383 12.0884 32.383 12.0884H25.0254V11.0064C25.0254 9.49159 23.9434 8.40959 22.4285 8.40959H16.1529C14.6381 6.24558 12.0413 4.73077 9.22809 4.73077C4.46727 4.73077 0.788452 8.62599 0.788452 13.3868C0.788452 15.3344 1.43765 17.0656 2.51966 18.5804V28.1021C2.51966 29.6169 3.60166 30.6989 5.11647 30.6989H6.19848V30.9153C6.19848 33.5121 8.36249 35.6761 10.9593 35.6761C13.5561 35.6761 15.7201 33.5121 15.7201 30.9153C15.7201 30.6989 15.7201 30.6989 15.7201 30.6989H22.2121H22.4285C23.0777 30.6989 24.5926 30.6989 26.5402 30.6989V30.9153C26.5402 33.5121 28.7042 35.6761 31.301 35.6761C33.8978 35.6761 36.0618 33.5121 36.0618 30.9153C36.0618 30.6989 36.0618 30.6989 36.0618 30.6989C36.2782 30.6989 36.4946 30.6989 36.4946 30.6989C40.1734 30.9153 39.7406 28.3185 39.7406 28.3185ZM38.6586 20.7444C38.6586 20.7444 38.6586 20.9608 38.6586 21.3936H30.219C29.7862 21.3936 29.3534 20.9608 29.3534 20.528V17.0656C29.3534 16.6328 29.7862 16.2 30.219 16.2H35.8454C36.4946 16.8492 37.1438 17.7148 37.5766 18.364C38.6586 19.6624 38.6586 20.7444 38.6586 20.7444ZM9.22809 6.02918C13.3397 6.02918 16.8021 9.27519 16.8021 13.6032C16.8021 17.9312 13.3397 20.9608 9.22809 20.9608C5.11647 20.9608 1.87046 17.4984 1.87046 13.3868C1.87046 9.27519 5.11647 6.02918 9.22809 6.02918ZM10.7429 34.5941C8.79529 34.5941 7.28048 33.0793 7.28048 31.1317C7.28048 29.1841 8.79529 27.6693 10.7429 27.6693C12.6905 27.6693 14.2053 29.1841 14.2053 31.1317C14.2053 33.0793 12.6905 34.5941 10.7429 34.5941ZM15.0709 29.6169C14.4217 27.8857 12.6905 26.3709 10.7429 26.3709C8.79529 26.3709 7.06408 27.6693 6.41488 29.6169H4.90007C4.25087 29.6169 3.60166 28.9677 3.60166 28.3185V19.6624C5.11647 20.9608 7.06408 21.8264 9.22809 21.8264C13.9889 21.8264 17.6677 17.9312 17.6677 13.3868C17.6677 12.0884 17.2349 10.79 16.8021 9.708H22.4285C23.0777 9.708 23.7269 10.3572 23.7269 11.0064V28.3185C23.7269 28.9677 23.0777 29.6169 22.4285 29.6169H15.0709ZM31.0846 34.5941C29.137 34.5941 27.6222 33.0793 27.6222 31.1317C27.6222 29.1841 29.137 27.6693 31.0846 27.6693C33.0322 27.6693 34.547 29.1841 34.547 31.1317C34.547 33.0793 33.0322 34.5941 31.0846 34.5941ZM36.4946 29.8333H35.629C34.9798 27.8857 33.2486 26.5873 31.301 26.5873C29.137 26.5873 27.4058 27.8857 26.973 29.8333H24.809C25.2418 29.4005 25.4582 28.9677 25.4582 28.3185V12.954C25.4582 12.954 30.219 12.954 32.1666 12.954C34.1142 12.954 34.9798 14.2524 34.9798 14.2524C34.9798 14.2524 34.7634 14.6852 35.1962 15.118H30.219C29.137 15.118 28.4878 15.9836 28.4878 16.8492V20.3116C28.4878 21.3936 29.3534 22.0428 30.219 22.0428H38.875C38.875 23.7741 38.875 26.3709 38.875 27.6693C38.6586 30.0497 36.4946 29.8333 36.4946 29.8333Z" />
  </symbol>
</svg>

<svg xmlns="http://www.w3.org/2000/svg">
  <symbol id="main3">
    <path
      d="M15.9398 11.6266C15.9398 12.2428 17.1722 12.8589 19.0207 12.8589C20.8693 12.8589 22.1016 12.2428 22.1016 11.6266C22.1016 11.0104 20.8693 10.3942 19.0207 10.3942C17.4803 10.3942 15.9398 10.7023 15.9398 11.6266Z" />
    <path
      d="M49.2137 23.0259C49.2137 19.945 46.7489 17.4803 43.668 17.4803H42.4356H15.3236C15.3236 17.4803 7.92946 17.7884 4.54046 11.9346C4.84855 7.62137 8.23755 4.54046 12.5508 4.54046H24.8745C29.4958 4.54046 32.8848 8.23755 32.8848 12.5508V14.0913H34.4253V12.8589C34.4253 7.31327 30.112 3 24.5664 3H12.8589C7.31327 3 3 7.31327 3 12.8589V16.8641V17.4803V27.3392C3 32.8848 7.31327 37.1981 12.8589 37.1981H15.0155V35.6576H12.5508C7.92946 35.6576 4.54046 31.9606 4.54046 27.6473V17.4803V16.8641V14.7075C5.46473 15.9398 8.54564 19.0207 15.0155 19.0207C24.2583 19.0207 42.1276 19.0207 42.1276 19.0207H43.668C45.8246 19.0207 47.3651 20.5612 47.3651 22.7178V24.5664V25.1826C47.3651 27.3392 45.8246 28.8797 43.668 28.8797H43.3599H23.9502C20.8693 28.8797 18.4046 31.3444 18.4046 34.4253V42.7437C18.4046 45.8247 20.8693 48.2894 23.9502 48.2894H43.668C46.7489 48.2894 49.2137 45.8247 49.2137 42.7437V34.4253C49.2137 34.4253 49.2137 27.0311 49.2137 24.8745C49.2137 24.8745 49.2137 24.8745 49.2137 24.5664V23.0259ZM47.3651 43.3599C47.3651 45.5166 45.8246 47.057 43.668 47.057H23.6421C21.4855 47.057 19.945 45.5166 19.945 43.3599V34.4253C19.945 32.2686 21.4855 30.7282 23.6421 30.7282H29.4958V35.9657H31.0363V30.7282H38.1224H40.8952V35.9657H42.4356V30.7282H43.668C45.2085 30.7282 46.7489 30.112 47.6732 29.1877V43.3599H47.3651Z" />
  </symbol>
</svg>